<svg xmlns="http://www.w3.org/2000/svg" width="1200" height="630" viewBox="0 0 1200 630">
  <defs>
    <linearGradient id="bg" x1="0" y1="0" x2="1" y2="1"><stop stop-color="#070707"/><stop offset=".55" stop-color="#14110d"/><stop offset="1" stop-color="#0f3d34"/></linearGradient>
    <linearGradient id="gold" x1="0" y1="0" x2="1" y2="1"><stop stop-color="#fff1c7"/><stop offset=".5" stop-color="#d8b46a"/><stop offset="1" stop-color="#8e642b"/></linearGradient>
    <filter id="shadow"><feDropShadow dx="0" dy="28" stdDeviation="28" flood-color="#000" flood-opacity=".45"/></filter>
  </defs>
  <rect width="1200" height="630" fill="url(#bg)"/>
  <circle cx="1040" cy="90" r="260" fill="#d8b46a" opacity=".16"/>
  <circle cx="120" cy="570" r="260" fill="#0f5c4d" opacity=".38"/>
  <rect x="72" y="72" width="1056" height="486" rx="42" fill="rgba(255,255,255,.055)" stroke="rgba(240,215,151,.28)" filter="url(#shadow)"/>
  <rect x="112" y="112" width="86" height="86" rx="28" fill="url(#gold)"/>
  <text x="155" y="166" text-anchor="middle" font-family="Arial, sans-serif" font-size="28" font-weight="900" fill="#17110a">SB</text>
  <text x="226" y="150" font-family="Inter, Arial, sans-serif" font-size="33" font-weight="900" fill="#fff1c7">Sajt za Biznis</text>
  <text x="112" y="285" font-family="Inter, Arial, sans-serif" font-size="76" font-weight="900" fill="#fbf7ef">Moderni sajtovi</text>
  <text x="112" y="363" font-family="Inter, Arial, sans-serif" font-size="76" font-weight="900" fill="#fbf7ef">za male biznise</text>
  <text x="112" y="430" font-family="Inter, Arial, sans-serif" font-size="30" font-weight="600" fill="#b9afa0">Paketi od 329€ · Mobile-first · SEO osnova · WhatsApp · Mapa</text>
  <rect x="790" y="190" width="250" height="270" rx="34" fill="rgba(255,255,255,.09)" stroke="rgba(240,215,151,.28)"/>
  <rect x="820" y="220" width="190" height="92" rx="20" fill="url(#gold)" opacity=".88"/>
  <rect x="820" y="338" width="150" height="15" rx="8" fill="#fff1c7" opacity=".55"/>
  <rect x="820" y="370" width="120" height="15" rx="8" fill="#fff1c7" opacity=".36"/>
  <rect x="820" y="405" width="104" height="38" rx="19" fill="url(#gold)"/>
</svg>
